<?xml version="1.0" encoding="UTF-8"?>
<svg xmlns="http://www.w3.org/2000/svg" width="600" height="100" viewBox="0 0 600 100" preserveAspectRatio="xMidYMid meet">
  <!-- Profile silhouette -->
  <path d="M60 80c-25 0-45-20-45-45S35 0 60 0c25 0 20 20 20 35s5 45-20 45z" fill="#1472ff"/>
  
  <!-- Sound waves -->
  <path d="M85 35c0 0 5-5 10 0s10 0 10 0" stroke="#1472ff" stroke-width="4" stroke-linecap="round"/>
  <path d="M85 50c0 0 5-5 10 0s10 0 10 0" stroke="#1472ff" stroke-width="4" stroke-linecap="round"/>
  <path d="M85 65c0 0 5-5 10 0s10 0 10 0" stroke="#1472ff" stroke-width="4" stroke-linecap="round"/>
  
  <!-- Text: Smart Voice AI -->
  <path d="M140 25c-4-5-10-8-18-8-15 0-23 8-23 18 0 25 35 10 35 28 0 7-5 13-18 13-8 0-15-3-18-8l-5 5c7 7 15 10 23 10 15 0 25-8 25-20 0-25-35-13-35-28 0-7 5-12 15-12 8 0 13 3 18 8l1-6z" fill="#1472ff"/>
  <path d="M200 60h-28v5h11v25h6v-25h11v-5z" fill="#1472ff"/>
  <path d="M235 90V50h-6v18h-22V50h-6v40h6V74h22v16h6z" fill="#1472ff"/>
  <path d="M270 90c15 0 26-11 26-25s-11-25-26-25-26 11-26 25 11 25 26 25zm0-6c-11 0-19-8-19-19s8-19 19-19 19 8 19 19-8 19-19 19z" fill="#1472ff"/>
  <path d="M320 60h-15v30h6v-12h9c11 0 17-4 17-9s-6-9-17-9zm0 13h-9v-8h9c6 0 10 1 10 4s-4 4-10 4z" fill="#1472ff"/>
  <path d="M375 60v15c0 6-5 11-15 11s-15-5-15-11V60h-6v15c0 10 9 16 21 16s21-6 21-16V60h-6z" fill="#1472ff"/>
  <path d="M410 60h6v30h-6V60z" fill="#1472ff"/>
</svg>
